<?xml version="1.0" encoding="UTF-8"?>
<svg width="512pt" height="512pt" version="1.1" viewBox="0 0 512 512" xmlns="http://www.w3.org/2000/svg">
 <path d="m468.99 128-110.08-110.59c-3.0703-3.0703-7.168-4.6094-11.777-4.6094l-252.93 0.003906c-9.2148 0-16.383 7.6797-16.383 16.383v209.41l-21.504 0.003906c-10.238 0-18.434 8.1914-18.434 18.434v124.93c0 10.238 8.1914 18.434 18.434 18.434h20.992v81.922c0 9.2148 7.6797 16.383 16.383 16.383h363.01c9.2148 0 16.383-7.6797 16.383-16.383l0.003906-342.54c1.0234-4.0977-0.51562-8.707-4.0977-11.777zm-381.44 212.99c-3.0703-5.6328-4.6094-12.801-4.6094-21.504 0-8.1914 1.5352-15.359 4.6094-21.504 3.0703-5.6328 7.6797-10.238 12.801-13.312 5.6328-3.0703 11.266-4.6094 18.434-4.6094 4.6094 0 8.7031 0.51172 12.289 2.0469 3.5859 1.0234 7.168 3.0703 10.238 5.6328 3.0703 2.5586 5.1211 5.1211 7.168 8.7031 2.0469 3.5859 3.0703 7.168 3.5859 11.777h-16.383c-0.51172-2.0469-1.0234-4.0977-2.0469-5.6328-1.0234-1.5352-2.0469-3.0703-3.5859-4.0977-1.5352-1.0234-3.0703-2.0469-5.1211-2.5586-2.0469-0.51172-4.0977-1.0234-6.1445-1.0234-4.0977 0-7.6797 1.0234-10.238 3.0703-3.0703 2.0469-5.1211 4.6094-6.6562 8.7031-1.5352 3.5859-2.5586 8.1914-2.5586 13.824 0 5.6328 1.0234 10.238 2.5586 13.824 1.5352 3.5859 4.0977 6.6562 6.6562 8.7031 3.0703 2.0469 6.1445 3.0703 10.238 3.0703 2.0469 0 4.0977-0.51172 6.1445-1.0234 2.0469-0.51172 3.5859-1.5352 5.1211-2.5586 1.5352-1.0234 2.5586-2.5586 3.5859-4.0977 1.0234-1.5352 1.5352-3.5859 2.0469-5.6328h16.383c-0.51172 3.5859-1.5352 7.168-3.0703 10.238s-4.0977 6.1445-6.6562 8.7031c-3.0703 2.5586-6.1445 4.6094-10.238 6.1445-4.0977 1.5352-8.1914 2.0469-13.312 2.0469-6.6562 0-12.801-1.5352-18.434-4.6094-5.6367-3.0586-9.7305-8.6914-12.805-14.324zm353.28 124.93h-329.73v-65.539h208.89c10.238 0 18.434-8.1914 18.434-18.434v-124.93c0-10.238-8.1914-18.434-18.434-18.434l-208.89 0.003906v-192.52h208.89v104.45c0 9.2148 7.6797 16.383 16.383 16.383h104.45zm-236.54-134.14c-1.0234-1.0234-2.5586-2.0469-4.6094-3.0703-2.0469-1.0234-4.0977-1.5352-7.168-2.0469l-8.1914-2.5625c-6.6562-1.5352-11.777-4.0977-15.359-7.168-3.5859-3.5859-5.6328-7.6797-5.6328-13.312 0-4.6094 1.0234-8.7031 3.5859-12.289 2.5586-3.5859 6.1445-6.1445 10.238-8.1914 4.6094-2.0469 9.2148-3.0703 14.848-3.0703s10.754 1.0234 14.848 3.0703c4.0977 2.0469 7.6797 4.6094 9.7266 8.1914 2.5586 3.5859 3.5859 7.6797 3.5859 12.289h-15.359c-0.51172-3.0703-1.5352-5.6328-4.0977-7.168-2.0469-1.5352-5.1211-2.5586-9.2148-2.5586-2.5586 0-5.1211 0.51172-6.6562 1.0234-2.0469 0.51172-3.0703 1.5352-4.0977 3.0703-1.0234 1.5352-1.5352 2.5586-1.5352 4.6094 0 1.5352 0 2.5586 1.0234 3.5859 0.51172 1.0234 1.5352 2.0469 2.5586 2.5586s2.5586 1.5352 4.0977 2.0469c1.5352 0.51172 3.0703 1.0234 4.6094 1.5352l7.168 1.5352c3.5859 0.51172 6.6562 1.5352 9.2148 3.0703 2.5586 1.0234 5.1211 2.5586 7.168 4.6094 2.0469 2.0469 3.5859 4.0977 4.6094 6.6562 1.0234 2.5586 1.5352 5.1211 1.5352 8.7031 0 4.6094-1.0234 8.7031-3.5859 12.289-2.5586 3.5859-5.6328 6.1445-10.238 8.1914-4.6094 2.0469-9.7266 3.0703-15.871 3.0703s-11.777-1.0234-16.383-3.0703c-4.6094-2.0469-8.1914-4.6094-10.754-8.7031-2.5586-3.5859-4.0977-8.1914-4.0977-13.824h15.871c0 2.5586 1.0234 4.6094 2.0469 6.6562 1.5352 1.5352 3.0703 3.0703 5.1211 4.0977 2.0469 1.0234 4.6094 1.5352 7.6797 1.5352 2.5586 0 5.1211-0.51172 7.168-1.0234 2.0469-1.0234 3.5859-2.0469 4.6094-3.5859 1.0234-1.5352 1.5352-3.0703 1.5352-5.1211 1.5391-3.0703 1.0273-4.6055 0.003906-5.6289zm69.117 0c-1.0234-1.0234-2.5586-2.0469-4.6094-3.0703-2.0469-1.0234-4.0977-1.5352-7.168-2.0469l-8.1914-2.0469c-6.6562-1.5352-11.777-4.0977-15.359-7.168-3.5859-3.5859-5.6328-7.6797-5.6328-13.312 0-4.6094 1.0234-8.7031 3.5859-12.289 2.5586-3.5859 6.1445-6.1445 10.238-8.1914 4.6094-2.0469 9.2148-3.0703 14.848-3.0703 5.6328 0 10.754 1.0234 14.848 3.0703 4.0977 2.0469 7.6797 4.6094 9.7266 8.1914 2.5586 3.5859 3.5859 7.6797 3.5859 12.289h-15.359c-0.51172-3.0703-1.5352-5.6328-4.0977-7.168-2.0469-1.5352-5.1211-2.5586-9.2148-2.5586-2.5586 0-5.1211 0.51172-6.6562 1.0234-2.0469 0.51172-3.0703 1.5352-4.0977 3.0703-1.0234 1.5352-1.5352 2.5586-1.5352 4.6094 0 1.5352 0 2.5586 1.0234 3.5859 0.51172 1.0234 1.5352 2.0469 2.5586 2.5586 1.0234 0.51172 2.5586 1.5352 4.0977 2.0469 1.5352 0.51172 3.0703 1.0234 4.6094 1.5352l7.168 1.5352c3.5859 0.51172 6.6562 1.5352 9.2148 3.0703 2.5586 1.0234 5.1211 2.5586 7.168 4.6094 2.0469 2.0469 3.5859 4.0977 4.6094 6.6562 1.0234 2.5586 1.5352 5.1211 1.5352 8.7031 0 4.6094-1.0234 8.7031-3.5859 12.289-2.5586 3.5859-5.6328 6.1445-10.238 8.1914-4.6094 2.0469-9.7266 3.0703-15.871 3.0703s-11.777-1.0234-16.383-3.0703c-4.6094-2.0469-8.1914-4.6094-10.754-8.7031-2.5586-3.5859-4.0977-8.1914-4.0977-13.824h15.871c0 2.5586 1.0234 4.6094 2.0469 6.6562 1.5352 1.5352 3.0703 3.0703 5.1211 4.0977 2.0469 1.0234 4.6094 1.5352 7.6797 1.5352 2.5586 0 5.1211-0.51172 7.168-1.0234 2.0469-1.0234 3.5859-2.0469 4.6094-3.5859 1.0234-1.5352 1.5352-3.0703 1.5352-5.1211 1.543-3.5859 1.0312-5.1211 0.003906-6.1445z" fill="#512379"/>
</svg>
